<svg width="58" height="59" viewBox="0 0 58 59" fill="none" xmlns="http://www.w3.org/2000/svg">
<path d="M56.5919 15.4758C56.5918 15.4758 56.5918 15.4758 56.5917 15.4758L56.5898 15.4738L52.9236 14.9396C52.4082 14.8647 52.05 14.3773 52.1234 13.851C52.1586 13.5981 52.2909 13.37 52.491 13.2167L55.4541 10.947C55.8706 10.6281 55.9549 10.0248 55.6426 9.59948L52.2497 4.97931C51.9374 4.55398 51.3467 4.46784 50.9302 4.7868L47.968 7.05646C47.5533 7.37783 46.9621 7.29505 46.6474 6.87153C46.4946 6.66591 46.4291 6.40615 46.4657 6.15071L46.9897 2.40644C47.0635 1.88018 46.7057 1.39253 46.1906 1.31697C46.1902 1.31697 46.1899 1.31685 46.1895 1.31685L40.5949 0.500619C40.0797 0.42506 39.602 0.790343 39.528 1.31661C39.528 1.31673 39.528 1.31673 39.528 1.31685L39.004 5.06112C38.9306 5.58739 38.4534 5.95327 37.9381 5.87831C37.6904 5.84234 37.467 5.70722 37.317 5.50293L35.0955 2.47671C34.7832 2.05139 34.1925 1.96524 33.776 2.2842L30.9439 4.45472C29.6626 4.31564 28.3704 4.31564 27.0891 4.45472C18.6979 5.43422 12.1176 12.2685 11.2997 20.8535C11.2742 21.1259 11.2648 21.3963 11.2516 21.6668H10.9689C10.5216 21.6677 10.1365 21.9894 10.0471 22.4368L9.39585 25.5997L6.78706 23.7623C6.41265 23.4984 5.90701 23.5454 5.58539 23.8739L2.75793 26.7615C2.43678 27.0899 2.39084 27.6055 2.64861 27.9878L4.43933 30.6473L1.34138 31.3124C0.908074 31.4094 0.599646 31.8017 0.600588 32.2547V36.1049C0.600352 36.5602 0.912668 36.9533 1.34892 37.0472L4.44687 37.7123L2.65615 40.3718C2.39838 40.754 2.44432 41.2697 2.76547 41.5981L5.59293 44.4857C5.91455 44.8142 6.42019 44.8612 6.7946 44.5973L9.39868 42.7637L10.0499 45.9276C10.1394 46.375 10.5245 46.6968 10.9717 46.6976H14.7416C15.1874 46.6978 15.5724 46.3789 15.6643 45.9333L16.3156 42.7695L18.9197 44.5983C19.2939 44.8616 19.7989 44.8146 20.1204 44.4866L21.5841 42.987V45.7302C21.5883 47.0996 22.3066 48.3628 23.469 49.0452V54.3931C23.469 56.5194 25.1569 58.2432 27.239 58.2432H31.0089C33.091 58.2432 34.7788 56.5194 34.7788 54.3931V49.0452C35.9413 48.3628 36.6596 47.0996 36.6638 45.7302V41.9205C36.6894 40.3175 37.5105 38.8376 38.8438 37.9914C39.6259 37.4732 40.3677 36.8939 41.0624 36.2589L39.8051 34.8247C39.1837 35.3936 38.5197 35.912 37.8193 36.3753C35.9479 37.5749 34.8023 39.6641 34.7788 41.9205V45.7302C34.7788 46.7935 33.935 47.6553 32.8939 47.6553H25.354C24.3129 47.6553 23.469 46.7935 23.469 45.7302V41.8406C23.4472 39.6269 22.3197 37.578 20.4795 36.4081C13.0095 31.6144 10.7588 21.544 15.4526 13.915C18.3649 9.18162 23.4475 6.30063 28.9213 6.28066C28.9073 6.31495 28.8949 6.34996 28.8845 6.38557C28.8496 6.63824 28.9144 6.89487 29.0646 7.09881L31.286 10.1241C31.5202 10.4336 31.5427 10.8588 31.3425 11.1925C31.1498 11.5282 30.7772 11.7113 30.4001 11.6555L26.7338 11.1203C26.2185 11.0449 25.741 11.4103 25.667 11.9364C25.667 11.9368 25.6669 11.9371 25.6669 11.9375L24.8667 17.654C24.7929 18.1801 25.1507 18.6679 25.6658 18.7435C25.6662 18.7435 25.6665 18.7436 25.6669 18.7436L29.3332 19.2788C29.8485 19.3537 30.2067 19.8411 30.1333 20.3674C30.0981 20.6203 29.9658 20.8484 29.7658 21.0017L26.8035 23.2704C26.3871 23.5894 26.3027 24.1926 26.615 24.618L30.008 29.2381C30.3203 29.6635 30.911 29.7496 31.3275 29.4306L34.2906 27.1619C34.7074 26.8436 35.2982 26.9306 35.6099 27.3564C35.759 27.5601 35.8232 27.8159 35.7882 28.0677L35.2652 31.812C35.1912 32.3381 35.5489 32.826 36.0642 32.9015C36.0643 32.9015 36.0643 32.9015 36.0644 32.9015L41.6627 33.7187C41.7068 33.7245 41.7512 33.7274 41.7956 33.7274C42.2649 33.728 42.663 33.376 42.7296 32.9015L43.2527 29.1573C43.3261 28.631 43.8034 28.2651 44.3187 28.3401C44.5663 28.3761 44.7897 28.5112 44.9398 28.7155L47.1621 31.7407C47.4745 32.166 48.0652 32.2522 48.4816 31.9332L53.0055 28.4681C53.422 28.1491 53.5064 27.5459 53.194 27.1205L50.9726 24.0953C50.7395 23.7852 50.717 23.3608 50.9161 23.0269C51.1047 22.6867 51.4807 22.5024 51.8585 22.5649L55.5248 23.0991C56.04 23.1746 56.5177 22.8092 56.5917 22.2831C56.5917 22.283 56.5917 22.283 56.5917 22.2828L57.3909 16.5654C57.4649 16.0391 57.1072 15.5513 56.5919 15.4758ZM25.354 49.5804H32.8939V51.5055H25.354V49.5804V49.5804ZM25.354 53.4305H32.8939V54.3931C32.8939 55.4563 32.05 56.3182 31.0089 56.3182H27.239C26.1979 56.3182 25.354 55.4563 25.354 54.3931V53.4305V53.4305ZM17.8509 36.8316C18.3655 37.2614 18.9032 37.6615 19.4616 38.0299C20.3521 38.6047 21.0225 39.4742 21.3607 40.4931L19.3391 42.5539L17.3815 41.1755C16.5243 40.5722 15.3506 40.7929 14.7598 41.6683C14.6182 41.8783 14.5187 42.1148 14.4674 42.3643L13.9735 44.7677H11.7332L11.2394 42.3681C11.0249 41.3277 10.0253 40.6618 9.00661 40.8807C8.76238 40.9332 8.53077 41.0347 8.32519 41.1794L6.36671 42.5539L4.6495 40.804L5.9982 38.8058C6.58949 37.9307 6.37413 36.7318 5.51729 36.128C5.3116 35.983 5.07975 35.8812 4.83517 35.8286L2.48556 35.3233V33.0363L4.83517 32.531C5.85352 32.3104 6.50407 31.2886 6.28813 30.2484C6.23688 30.0017 6.13874 29.7676 5.99914 29.5596L4.6495 27.5556L6.36671 25.8057L8.32613 27.1841C9.18367 27.7867 10.3574 27.5654 10.9475 26.6896C11.0889 26.4799 11.1881 26.2436 11.2394 25.9944L11.4043 25.1935C11.5553 26.3026 11.8054 27.3951 12.1517 28.4575C9.05055 28.8351 6.8363 31.7087 7.20599 34.8758C7.57568 38.0429 10.3895 40.3043 13.4906 39.9267C15.3574 39.6993 16.9916 38.5394 17.8509 36.8316ZM16.3872 35.4754C15.6834 37.4732 13.5271 38.5101 11.5709 37.7915C9.61463 37.0727 8.59933 34.8705 9.30302 32.8727C9.84141 31.3443 11.2623 30.3263 12.8528 30.3296C12.865 30.3296 12.8763 30.3296 12.8886 30.3296C13.7553 32.2382 14.939 33.9791 16.3872 35.4754ZM54.8538 21.0546L52.1206 20.6561C50.5746 20.4307 49.1425 21.5278 48.9218 23.1065C48.8157 23.8646 49.0089 24.6348 49.459 25.2475L51.1149 27.5027L48.099 29.8128L46.4421 27.5585C45.5053 26.2825 43.733 26.0237 42.4838 26.9805C41.8839 27.4399 41.4872 28.1239 41.3809 28.882L40.9992 31.6772L37.2679 31.1324L37.6581 28.341C37.8795 26.7624 36.8058 25.2993 35.26 25.0734C34.5172 24.9647 33.7627 25.162 33.1625 25.6219L30.9542 27.3131L28.6923 24.2329L30.8996 22.5408C32.149 21.584 32.4024 19.7741 31.4655 18.4983C31.0157 17.8856 30.346 17.4805 29.6037 17.372L26.8705 16.9735L27.4039 13.1628L30.1371 13.5613C31.6829 13.7874 33.1155 12.6908 33.3367 11.1121C33.4431 10.3535 33.2499 9.583 32.7996 8.96998L31.138 6.71283L34.154 4.40275L35.8109 6.65797C36.7477 7.93393 38.5199 8.19274 39.7692 7.23597C40.3691 6.7766 40.7657 6.0926 40.872 5.33448L41.2622 2.54312L44.9935 3.08696L44.6033 5.87831C44.3825 7.45712 45.4567 8.91969 47.0026 9.14517C47.745 9.25345 48.4991 9.05613 49.099 8.59652L51.3072 6.90534L53.5692 9.98546L51.3609 11.6776C50.1115 12.6344 49.8581 14.4443 50.795 15.7201C51.2448 16.3328 51.9145 16.7379 52.6568 16.8464L55.39 17.2449L54.8538 21.0546Z" fill="#204484"/>
<path d="M41.1273 9.40771C36.9631 9.40771 33.5874 12.8553 33.5874 17.108C33.5874 21.3607 36.9631 24.8083 41.1273 24.8083C45.2914 24.8083 48.6672 21.3607 48.6672 17.108C48.6624 12.8572 45.2895 9.41241 41.1273 9.40771ZM41.1273 22.8832C38.0041 22.8832 35.4724 20.2976 35.4724 17.108C35.4724 13.9184 38.0041 11.3328 41.1273 11.3328C44.2504 11.3328 46.7822 13.9184 46.7822 17.108C46.7785 20.2961 44.2489 22.8795 41.1273 22.8832Z" fill="#204484"/>
<path d="M30.0656 42.8423H28.1807V45.7299H30.0656V42.8423Z" fill="#204484"/>
<path d="M25.0022 33.389C19.1841 31.0678 16.3101 24.3693 18.5831 18.4274C19.4638 16.125 21.0445 14.1719 23.0927 12.8552L22.0852 11.2266C15.9195 15.1935 14.07 23.5141 17.9543 29.811C19.4586 32.2497 21.689 34.1316 24.318 35.1803C26.645 36.0908 28.1816 38.372 28.1821 40.917H30.0671C30.0701 37.5779 28.0553 34.5834 25.0022 33.389Z" fill="#204484"/>
<path d="M53.6282 36.1045H47.0308V38.0296H53.6282V36.1045Z" fill="#204484"/>
<path d="M46.6924 41.1396L45.4858 42.6187L51.1411 47.4306L52.3477 45.9515L46.6924 41.1396Z" fill="#204484"/>
<path d="M43.2614 43.8047H41.3765V50.5424H43.2614V43.8047Z" fill="#204484"/>
<path d="M9.10283 14.9566L1.56348 16.8813L2.02036 18.7479L9.55971 16.8232L9.10283 14.9566Z" fill="#204484"/>
<path d="M4.22342 5.48367L3.12842 7.04932L9.7253 11.8615L10.8203 10.2958L4.22342 5.48367Z" fill="#204484"/>
<path d="M13.0307 0.251189L11.2046 0.728027L13.1322 8.42772L14.9584 7.95089L13.0307 0.251189Z" fill="#204484"/>
</svg>
