<svg width="51" height="52" viewBox="0 0 51 52" fill="none" xmlns="http://www.w3.org/2000/svg">
<path d="M5.19786 25.5413C5.19786 26.3296 6.31762 26.5486 6.60341 25.8115L12.1555 11.4954C12.3475 11.0004 11.9528 10.4869 11.478 10.4869H7.98905V1.52551C7.98905 0.738071 6.88764 0.514411 6.58894 1.2414L3.85921 7.88337C3.49722 8.76462 4.84112 9.33263 5.2033 8.45147L6.53303 5.21599V11.2252C6.53303 11.633 6.859 11.9635 7.26109 11.9635H10.4094L6.65398 21.6467V15.8416C6.65398 15.4338 6.32801 15.1033 5.92592 15.1033H2.46929L3.78922 11.8919C4.1513 11.0107 2.8074 10.4429 2.44512 11.3238L0.704964 15.5576C0.500428 16.0554 0.897172 16.58 1.37701 16.58H5.19786V25.5413Z" fill="#204484"/>
<path d="M35.3577 35.5017C35.8805 35.5489 36.1758 35.3087 36.2437 34.781V32.9391C37.706 31.0719 38.1998 28.4994 37.5282 26.2095C37.2653 25.2928 35.8672 25.7056 36.1302 26.6221C36.6913 28.5348 36.2397 30.684 34.9603 32.1989C34.8489 32.3322 34.7877 32.5013 34.7877 32.6763V33.8605L33.613 33.5958C33.4482 33.5588 33.2759 33.5806 33.1255 33.6582C29.24 35.7616 24.4202 32.7422 24.4677 28.3079C24.4509 23.2124 30.4404 20.401 34.2597 23.706C34.9783 24.3227 35.9189 23.1955 35.2004 22.5789C33.1657 20.79 30.092 20.3019 27.6291 21.3544C26.6529 18.302 23.8091 16.1627 20.582 16.1627C14.4526 16.1378 10.9511 23.4361 14.7559 28.2997V30.1417C14.8239 30.6694 15.1193 30.9096 15.642 30.8624L17.4544 30.4537C19.3303 31.358 21.4745 31.405 23.3719 30.6228C24.624 34.7673 29.5662 37.0837 33.5452 35.0933L35.3577 35.5017ZM20.582 29.6977C19.6602 29.6977 18.7493 29.4692 17.8743 29.0187C17.7238 28.9413 17.5515 28.9193 17.3866 28.9562L16.212 29.2211V28.0368C16.212 27.862 16.1509 27.6928 16.0394 27.5595C12.778 23.6859 15.5572 17.6218 20.5821 17.6392C23.2624 17.6392 25.6137 19.4753 26.318 22.0595C24.0996 23.5277 22.7209 26.3256 23.0581 29.1522C22.2861 29.5101 21.4375 29.6977 20.582 29.6977Z" fill="#204484"/>
<path d="M14.6899 4.61237H44.3901V9.45275H29.6105C29.2084 9.45275 28.8825 9.78322 28.8825 10.1911V14.4969L28.2005 13.8981C27.489 13.2733 26.5357 14.3896 27.2474 15.0144L29.0365 16.5854C29.4193 16.9644 29.802 16.9644 30.1847 16.5854L31.9737 15.0144C32.6854 14.3896 31.7323 13.2733 31.0206 13.8981L30.3387 14.4969V10.9294H45.1183C45.5204 10.9294 45.8463 10.5989 45.8463 10.1911V3.87406C45.8463 3.46621 45.5204 3.13574 45.1183 3.13574H14.6899C13.7486 3.13574 13.7486 4.61237 14.6899 4.61237Z" fill="#204484"/>
<path d="M27.6958 43.7929C27.0796 43.0714 25.9787 44.0378 26.595 44.7594L27.1855 45.451H6.61042V40.6106H21.39C21.7921 40.6106 22.1181 40.2801 22.1181 39.8723V34.9166C22.1181 33.962 20.662 33.962 20.662 34.9166V39.1341H5.88236C5.48027 39.1341 5.1543 39.4645 5.1543 39.8724V46.1894C5.1543 46.5972 5.48027 46.9277 5.88236 46.9277H27.1856L26.5951 47.6193C25.9853 48.3332 27.0697 49.3193 27.6959 48.5858L29.3294 46.6725C29.5663 46.3951 29.5663 45.9834 29.3294 45.706L27.6958 43.7929Z" fill="#204484"/>
<path d="M49.9201 42.5537C49.4398 41.8174 48.6333 41.3777 47.7626 41.3777H44.5054C44.5054 40.6042 44.5055 39.4104 44.5058 38.7421C44.5065 36.2163 40.9118 35.6074 40.0883 37.9733L39.4661 39.7607C39.0889 40.8452 38.0107 41.152 37.2411 41.8523C36.7836 41.3429 36.1246 41.0227 35.3933 41.0227H34.6199C33.2418 41.0227 32.1206 42.1597 32.1206 43.5571V48.2373C32.1206 49.6348 33.2418 50.7718 34.6199 50.7718H35.3933C36.1713 50.7718 36.8675 50.4093 37.3261 49.8423C38.2576 50.6122 39.4302 51.1891 40.6483 51.1891H45.8484C46.8878 51.1891 47.8222 50.5625 48.2288 49.5924L50.1429 45.0273C50.4837 44.2147 50.4004 43.2902 49.9201 42.5537ZM36.4365 48.2373C36.4365 48.8206 35.9685 49.2951 35.3934 49.2951H34.62C34.0448 49.2951 33.5768 48.8206 33.5768 48.2373V43.5571C33.5768 42.9738 34.0448 42.4993 34.62 42.4993H35.3934C35.9685 42.4993 36.4365 42.9738 36.4365 43.5571V48.2373ZM48.8031 44.4495L46.8889 49.0147C46.7112 49.4387 46.3028 49.7125 45.8485 49.7125H40.6484C39.834 49.7125 37.8927 49.0207 37.8927 47.9387V43.6817C37.8927 43.356 38.0512 43.0524 38.3168 42.8695C39.35 42.1577 40.3987 41.5183 40.8394 40.2522L41.4614 38.4648C41.7525 37.6284 43.0499 37.8352 43.0497 38.7416C43.0494 39.7864 43.0494 42.1161 43.0494 42.1161C43.091 42.566 43.3337 42.8121 43.7774 42.8544H47.7627C48.5617 42.8544 49.1157 43.7038 48.8031 44.4495Z" fill="#204484"/>
</svg>
