<svg width="49" height="49" viewBox="0 0 49 49" fill="none" xmlns="http://www.w3.org/2000/svg">
<path d="M44.6934 11.4844H27.9657L36.9995 2.45062C37.5601 1.88999 37.5601 0.981101 36.9995 0.420472C36.439 -0.140157 35.53 -0.140157 34.9693 0.420472L24.5 10.8898L14.0307 0.420567C13.4702 -0.140062 12.5612 -0.140062 12.0006 0.420567C11.44 0.981196 11.44 1.89009 12.0006 2.45072L21.0343 11.4844H4.30664C1.93196 11.4844 0 13.4164 0 15.7911V44.6934C0 47.0681 1.93196 49 4.30664 49H44.6934C47.068 49 49 47.0681 49 44.6934V15.7911C49 13.4164 47.068 11.4844 44.6934 11.4844V11.4844ZM46.1289 44.6934C46.1289 45.485 45.4849 46.129 44.6934 46.129H4.30664C3.51508 46.129 2.87109 45.485 2.87109 44.6934V15.7911C2.87109 14.9995 3.51508 14.3555 4.30664 14.3555H44.6934C45.4849 14.3555 46.1289 14.9995 46.1289 15.7911V44.6934Z" fill="#204484"/>
<path d="M41.8223 17.2271H7.17773C6.38493 17.2271 5.74219 17.8698 5.74219 18.6626V41.8228C5.74219 42.6156 6.38493 43.2583 7.17773 43.2583H41.8223C42.6151 43.2583 43.2578 42.6156 43.2578 41.8228V18.6626C43.2578 17.8698 42.6151 17.2271 41.8223 17.2271ZM40.3867 40.3872H8.61328V20.0981H40.3867V40.3872Z" fill="#204484"/>
<path d="M20.9515 37.2505C21.1638 37.3641 21.3965 37.4204 21.6288 37.4204C21.9073 37.4204 22.185 37.3394 22.4252 37.1793L31.0384 31.4372C31.4378 31.1709 31.6777 30.7226 31.6777 30.2427C31.6777 29.7627 31.4379 29.3145 31.0384 29.0482L22.4252 23.306C21.9846 23.0124 21.4184 22.9849 20.9515 23.2348C20.4848 23.4846 20.1934 23.9712 20.1934 24.5005V35.9849C20.1934 36.5143 20.4848 37.0008 20.9515 37.2505ZM23.0645 27.1829L27.6543 30.2427L23.0645 33.3025V27.1829Z" fill="#204484"/>
</svg>
