<svg width="51" height="52" viewBox="0 0 51 52" fill="none" xmlns="http://www.w3.org/2000/svg">
<path d="M21.4918 11.3675C21.4918 5.54068 16.8168 0.799805 11.0709 0.799805C5.32493 0.799805 0.649902 5.54068 0.649902 11.3675C0.649902 17.1944 5.32493 21.9353 11.0709 21.9353C16.8168 21.9353 21.4918 17.1944 21.4918 11.3675ZM2.25313 11.3675C2.25313 6.43734 6.20913 2.42561 11.0709 2.42561C15.9326 2.42561 19.8886 6.43734 19.8886 11.3675C19.8886 16.2978 15.9326 20.3095 11.0709 20.3095C6.20913 20.3095 2.25313 16.2978 2.25313 11.3675Z" fill="#204484"/>
<path d="M11.0709 8.92894C11.5124 8.92894 11.8725 9.29412 11.8725 9.74185H13.4757C13.4757 8.68364 12.8032 7.78937 11.8725 7.45278V6.49023H10.2692V7.45278C9.33846 7.78937 8.66602 8.68364 8.66602 9.74185C8.66602 11.0862 9.74514 12.1806 11.0709 12.1806C11.5124 12.1806 11.8725 12.5457 11.8725 12.9935C11.8725 13.4412 11.5124 13.8064 11.0709 13.8064C10.6293 13.8064 10.2692 13.4412 10.2692 12.9935H8.66602C8.66602 14.0517 9.33846 14.9459 10.2692 15.2825V16.2451H11.8725V15.2825C12.8032 14.9459 13.4757 14.0517 13.4757 12.9935C13.4757 11.6491 12.3966 10.5548 11.0709 10.5548C10.6293 10.5548 10.2692 10.1896 10.2692 9.74185C10.2692 9.29412 10.6293 8.92894 11.0709 8.92894Z" fill="#204484"/>
<path d="M11.0706 5.67708C14.1647 5.67708 16.6819 8.2297 16.6819 11.3674C16.6819 12.6372 16.2733 13.8426 15.4994 14.8524L16.7653 15.8499C17.7595 14.5515 18.2851 13.0023 18.2851 11.3674C18.2851 7.33384 15.0481 4.05127 11.0706 4.05127C9.45838 4.05127 7.9307 4.58434 6.65039 5.59253L7.63401 6.87619C8.62976 6.09147 9.81848 5.67708 11.0706 5.67708Z" fill="#204484"/>
<path d="M15.4912 17.1426L14.5076 15.8589C13.5118 16.6437 12.3231 17.0581 11.071 17.0581C7.97685 17.0581 5.45967 14.5054 5.45967 11.3677C5.45967 10.098 5.86831 8.89251 6.64213 7.88273L5.3763 6.88525C4.38211 8.1836 3.85645 9.7328 3.85645 11.3677C3.85645 15.4013 7.09343 18.6839 11.071 18.6839C12.6832 18.6839 14.2109 18.1508 15.4912 17.1426Z" fill="#204484"/>
<path d="M45.5401 15.4321H43.9369V8.92884H42.3336V5.67722H38.3256V0.799805H36.7224V5.67722H32.7143V8.92884H31.1111V15.4321H29.5078V26.8127H27.9046V21.9353H26.3014V18.6837H23.8966V14.6192H22.2933V18.6837H19.8885V21.9353H18.2853V26.8127H15.0788V49.574H13.4756V51.1998H47.1433V49.574H45.5401V15.4321ZM34.3175 7.30303H40.7304V8.92884H34.3175V7.30303ZM32.7143 10.5546H42.3336V15.4321H40.7304V12.1804H39.1272V15.4321H35.9207V12.1804H34.3175V15.4321H32.7143V10.5546ZM43.9369 17.0579V49.574H41.532V41.445H33.5159V49.574H31.1111V17.0579H43.9369ZM39.9288 49.574H35.1191V43.0708H39.9288V49.574ZM21.4917 20.3095H24.6982V21.9353H21.4917V20.3095ZM19.8885 23.5611H26.3014V26.8127H23.8966V25.1869H22.2933V26.8127H19.8885V23.5611ZM16.682 28.4385H29.5078V49.574H27.9046V30.0643H26.3014V49.574H23.8966V30.0643H22.2933V49.574H19.8885V30.0643H18.2853V49.574H16.682V28.4385Z" fill="#204484"/>
<path d="M32.7144 18.6836H34.3176V20.3094H32.7144V18.6836Z" fill="#204484"/>
<path d="M36.7227 18.6836H38.3259V20.3094H36.7227V18.6836Z" fill="#204484"/>
<path d="M40.7305 18.6836H42.3337V20.3094H40.7305V18.6836Z" fill="#204484"/>
<path d="M32.7144 23.561H34.3176V25.1868H32.7144V23.561Z" fill="#204484"/>
<path d="M36.7227 23.561H38.3259V25.1868H36.7227V23.561Z" fill="#204484"/>
<path d="M40.7305 23.561H42.3337V25.1868H40.7305V23.561Z" fill="#204484"/>
<path d="M32.7144 28.4385H34.3176V30.0643H32.7144V28.4385Z" fill="#204484"/>
<path d="M36.7227 28.4385H38.3259V30.0643H36.7227V28.4385Z" fill="#204484"/>
<path d="M40.7305 28.4385H42.3337V30.0643H40.7305V28.4385Z" fill="#204484"/>
<path d="M32.7144 33.3159H34.3176V34.9417H32.7144V33.3159Z" fill="#204484"/>
<path d="M36.7227 33.3159H38.3259V34.9417H36.7227V33.3159Z" fill="#204484"/>
<path d="M40.7305 33.3159H42.3337V34.9417H40.7305V33.3159Z" fill="#204484"/>
<path d="M32.7144 38.1934H34.3176V39.8192H32.7144V38.1934Z" fill="#204484"/>
<path d="M36.7227 38.1934H38.3259V39.8192H36.7227V38.1934Z" fill="#204484"/>
<path d="M40.7305 38.1934H42.3337V39.8192H40.7305V38.1934Z" fill="#204484"/>
<path d="M0.649902 25.187H2.25313V26.8128H0.649902V25.187Z" fill="#204484"/>
<path d="M0.649902 28.4385H2.25313V38.1933H0.649902V28.4385Z" fill="#204484"/>
<path d="M5.45996 30.877H7.06319V32.5028H5.45996V30.877Z" fill="#204484"/>
<path d="M5.45996 34.1289H7.06319V43.8837H5.45996V34.1289Z" fill="#204484"/>
<path d="M10.2695 25.187H11.8728V26.8128H10.2695V25.187Z" fill="#204484"/>
<path d="M10.2695 28.4385H11.8728V38.1933H10.2695V28.4385Z" fill="#204484"/>
<path d="M48.7471 49.5742H50.3503V51.2H48.7471V49.5742Z" fill="#204484"/>
<path d="M10.2695 49.5742H11.8728V51.2H10.2695V49.5742Z" fill="#204484"/>
</svg>
